<svg xmlns="http://www.w3.org/2000/svg" xmlns:xlink="http://www.w3.org/1999/xlink" width="1500" zoomAndPan="magnify" viewBox="0 0 1125 374.999991" height="500" preserveAspectRatio="xMidYMid meet" version="1.0"><defs><g/></defs><path stroke-linecap="butt" transform="matrix(0.75, 0, 0, 0.75, 122.428781, 158.288282)" fill="none" stroke-linejoin="miter" d="M 188.37622 86.80313 C 188.37622 95.381256 186.803304 102.771881 183.647053 108.975007 C 180.496012 115.178132 176.28247 120.448966 171.011636 124.792716 C 165.740802 129.131258 159.667885 132.672925 152.798093 135.412508 C 145.923093 138.152092 138.766842 140.292717 131.324133 141.844801 C 123.881425 143.396884 116.412674 144.428134 108.917882 144.943759 C 101.42309 145.464592 94.423089 145.719801 87.907464 145.719801 C 81.501213 145.719801 74.860588 145.490634 67.985588 145.021884 C 61.110587 144.558342 54.266837 143.756259 47.44392 142.620842 C 40.621002 141.485425 33.902252 139.959384 27.287668 138.047925 C 20.673084 136.136467 14.417876 133.730217 8.52725 130.834383 L 8.21475 -68.858338 C 14.006417 -71.238547 20.157459 -73.38438 26.667876 -75.295839 C 33.178294 -77.207297 39.818919 -78.806256 46.589753 -80.097922 C 53.360587 -81.394797 60.105379 -82.373964 66.824129 -83.045839 C 73.54288 -83.717714 80.053297 -84.056256 86.360589 -84.056256 C 93.699131 -84.056256 101.115798 -83.587506 108.61059 -82.660423 C 116.100174 -81.728131 123.313716 -80.176047 130.235592 -78.009381 C 137.162675 -75.837505 143.621009 -73.019797 149.615801 -69.556255 C 155.610593 -66.092713 160.860594 -61.832296 165.355386 -56.764588 C 169.850178 -51.702087 173.365803 -45.811462 175.897053 -39.092711 C 178.428303 -32.373961 179.693928 -24.618752 179.693928 -15.832293 C 179.693928 -10.045834 178.871011 -4.618751 177.214761 0.44375 C 175.56372 5.511458 173.183511 10.058334 170.084553 14.089584 C 166.980386 18.120834 163.209552 21.558334 158.766843 24.396876 C 154.318927 27.240626 149.30851 29.334376 143.725176 30.678127 C 150.443926 32.433335 156.568927 35.021877 162.100177 38.428127 C 167.626219 41.839586 172.329344 45.975003 176.209553 50.834378 C 180.084553 55.693753 183.079345 61.17292 185.199137 67.266671 C 187.318929 73.365629 188.37622 79.881255 188.37622 86.80313 Z M 109.615799 -1.571876 C 109.615799 -4.566667 108.996007 -7.123959 107.756423 -9.243751 C 106.51684 -11.363543 104.990798 -13.097918 103.183506 -14.441668 C 101.371006 -15.785418 99.407465 -16.764585 97.287673 -17.384377 C 95.173089 -18.004168 93.282464 -18.316668 91.631422 -18.316668 C 89.563714 -18.316668 87.548089 -18.004168 85.584547 -17.384377 C 83.621005 -16.764585 81.709547 -16.040627 79.850172 -15.212501 L 78.91788 19.204167 C 81.29288 19.204167 84.240797 19.001042 87.756422 18.584376 C 91.266839 18.172917 94.652256 17.266667 97.912673 15.870834 C 101.167881 14.475 103.933507 12.407292 106.20434 9.667708 C 108.480382 6.933333 109.615799 3.183333 109.615799 -1.571876 Z M 87.600172 48.975003 C 84.600172 48.975003 81.709547 49.282294 78.91788 49.902086 L 78.298088 85.256255 C 79.850172 85.563547 81.371005 85.850005 82.871005 86.105214 C 84.371005 86.36563 85.844964 86.495839 87.287672 86.495839 C 89.459547 86.495839 91.839756 86.261464 94.423089 85.797922 C 97.006423 85.329172 99.433506 84.402088 101.709548 83.006255 C 103.980382 81.610422 105.871007 79.725005 107.365798 77.344796 C 108.865799 74.969796 109.615799 71.818754 109.615799 67.886462 C 109.615799 63.959379 108.865799 60.756254 107.365798 58.277087 C 105.871007 55.79792 104.032465 53.855211 101.865798 52.464586 C 99.693923 51.068753 97.313714 50.136461 94.730381 49.672919 C 92.147047 49.204169 89.772047 48.975003 87.600172 48.975003 Z M 336.662688 -79.712506 L 335.110605 -13.972918 L 288.907477 -12.113543 L 277.126226 134.865633 L 211.699139 138.277092 L 212.00643 -8.702084 L 165.803302 -6.222918 L 167.662677 -79.405214 Z M 475.022073 -75.993755 L 466.33978 -10.56146 C 463.344988 -11.389585 460.344988 -11.957293 457.350196 -12.269793 C 454.350196 -12.577085 451.355404 -12.733335 448.355404 -12.733335 C 440.704362 -12.733335 433.417903 -11.728126 426.496028 -9.712501 C 419.568944 -7.696876 413.443944 -4.618751 408.121027 -0.483334 C 402.79811 3.646875 398.558526 8.81875 395.407484 15.016667 C 392.256442 21.219793 390.678317 28.506251 390.678317 36.881252 C 390.678317 42.256252 391.532484 46.907294 393.235609 50.834378 C 394.943942 54.761461 397.344984 58.01667 400.449151 60.600004 C 403.54811 63.188545 407.214776 65.100004 411.45436 66.339587 C 415.693944 67.579171 420.344986 68.198962 425.407486 68.198962 C 429.235611 68.198962 433.214778 67.787504 437.344987 66.959379 C 441.480404 66.131254 445.563737 65.04792 449.594988 63.70417 C 453.626238 62.36042 457.553321 60.808337 461.381447 59.053128 C 465.204364 57.292712 468.719989 55.48542 471.923114 53.626045 L 465.719989 126.495841 C 461.688738 128.56355 457.324155 130.396883 452.621029 132.00105 C 447.917904 133.600008 443.08457 134.995842 438.121028 136.183342 C 433.162695 137.37605 428.199153 138.277092 423.240819 138.896884 C 418.277277 139.521884 413.522069 139.829175 408.975193 139.829175 C 395.844984 139.829175 383.600192 137.402092 372.230399 132.542717 C 360.860607 127.683341 350.985606 121.016674 342.615814 112.542715 C 334.240813 104.063548 327.652271 94.063547 322.844979 82.542713 C 318.042896 71.016671 315.636645 58.584378 315.636645 45.251044 C 315.636645 27.579168 318.167896 10.9125 323.235604 -4.748959 C 328.298105 -20.410418 335.740813 -34.129169 345.563731 -45.915628 C 355.38144 -57.696879 367.553316 -66.998963 382.07415 -73.82188 C 396.594984 -80.644797 413.313735 -84.056256 432.230403 -84.056256 C 439.360612 -84.056256 446.678321 -83.483339 454.167905 -82.347923 C 461.662697 -81.212506 468.615822 -79.092714 475.022073 -75.993755 Z M 569.350204 -80.952089 L 560.36062 139.521884 L 492.761657 136.417717 L 496.480407 -10.254168 L 471.673114 6.803125 L 448.417904 -46.22292 L 498.959574 -84.056256 Z M 748.954382 30.990627 C 748.954382 40.084377 747.943966 49.131253 745.92834 58.120837 C 743.912715 67.115629 740.996048 75.745838 737.173131 84.011463 C 733.345006 92.282297 728.667923 99.985423 723.136672 107.115632 C 717.61063 114.24584 711.277296 120.448966 704.147088 125.719799 C 697.016879 130.990633 689.183545 135.12605 680.657503 138.12605 C 672.131461 141.120842 662.954377 142.620842 653.136668 142.620842 C 643.214792 142.620842 633.964791 141.120842 625.381457 138.12605 C 616.803332 135.12605 608.975206 130.990633 601.897081 125.719799 C 594.813747 120.448966 588.485622 114.24584 582.902288 107.115632 C 577.318954 99.985423 572.615829 92.282297 568.792912 84.011463 C 564.969995 75.745838 562.04812 67.089587 560.032495 58.042712 C 558.01687 49.001044 557.011661 39.98021 557.011661 30.990627 C 557.011661 21.995834 558.01687 12.954167 560.032495 3.855208 C 562.04812 -5.238542 564.969995 -13.920835 568.792912 -22.191669 C 572.615829 -30.462502 577.318954 -38.186461 582.902288 -45.368753 C 588.485622 -52.556254 594.813747 -58.780213 601.897081 -64.051046 C 608.975206 -69.327088 616.829374 -73.457297 625.459582 -76.457297 C 634.089791 -79.452089 643.318959 -80.952089 653.136668 -80.952089 C 662.954377 -80.952089 672.131461 -79.452089 680.657503 -76.457297 C 689.183545 -73.457297 697.016879 -69.327088 704.147088 -64.051046 C 711.277296 -58.780213 717.61063 -52.556254 723.136672 -45.368753 C 728.667923 -38.186461 733.345006 -30.462502 737.173131 -22.191669 C 740.996048 -13.920835 743.912715 -5.238542 745.92834 3.855208 C 747.943966 12.954167 748.954382 21.995834 748.954382 30.990627 Z M 683.527295 35.641669 C 683.527295 31.089585 682.907503 26.027085 681.662711 20.443751 C 680.423128 14.865626 678.511669 9.641667 675.928336 4.7875 C 673.345002 -0.0718755 670.03771 -4.155209 666.00646 -7.462501 C 661.97521 -10.769793 657.167918 -12.426043 651.584584 -12.426043 C 645.902292 -12.426043 641.042917 -10.769793 637.011667 -7.462501 C 632.980416 -4.155209 629.647083 -0.0718755 627.011666 4.7875 C 624.376249 9.641667 622.438749 14.865626 621.199166 20.443751 C 619.959582 26.027085 619.33979 31.089585 619.33979 35.641669 C 619.33979 40.188544 619.959582 45.251044 621.199166 50.834378 C 622.438749 56.417712 624.376249 61.636462 627.011666 66.495837 C 629.647083 71.350004 632.980416 75.433338 637.011667 78.74063 C 641.042917 82.047922 645.902292 83.704172 651.584584 83.704172 C 657.167918 83.704172 661.97521 82.047922 666.00646 78.74063 C 670.03771 75.433338 673.345002 71.350004 675.928336 66.495837 C 678.511669 61.636462 680.423128 56.417712 681.662711 50.834378 C 682.907503 45.251044 683.527295 40.188544 683.527295 35.641669 Z M 926.074186 30.990627 C 926.074186 40.084377 925.068977 49.131253 923.053352 58.120837 C 921.037727 67.115629 918.115852 75.745838 914.292935 84.011463 C 910.470018 92.282297 905.792934 99.985423 900.261684 107.115632 C 894.730433 114.24584 888.402308 120.448966 881.266891 125.719799 C 874.136682 130.990633 866.308557 135.12605 857.777306 138.12605 C 849.251264 141.120842 840.079388 142.620842 830.256471 142.620842 C 820.334595 142.620842 811.084595 141.120842 802.506469 138.12605 C 793.928344 135.12605 786.09501 130.990633 779.016884 125.719799 C 771.938759 120.448966 765.605425 114.24584 760.022091 107.115632 C 754.443966 99.985423 749.740841 92.282297 745.912715 84.011463 C 742.089798 75.745838 739.167923 67.089587 737.157506 58.042712 C 735.141881 49.001044 734.131465 39.98021 734.131465 30.990627 C 734.131465 21.995834 735.141881 12.954167 737.157506 3.855208 C 739.167923 -5.238542 742.089798 -13.920835 745.912715 -22.191669 C 749.740841 -30.462502 754.443966 -38.186461 760.022091 -45.368753 C 765.605425 -52.556254 771.938759 -58.780213 779.016884 -64.051046 C 786.09501 -69.327088 793.954385 -73.457297 802.584594 -76.457297 C 811.214803 -79.452089 820.438762 -80.952089 830.256471 -80.952089 C 840.079388 -80.952089 849.251264 -79.452089 857.777306 -76.457297 C 866.308557 -73.457297 874.136682 -69.327088 881.266891 -64.051046 C 888.402308 -58.780213 894.730433 -52.556254 900.261684 -45.368753 C 905.792934 -38.186461 910.470018 -30.462502 914.292935 -22.191669 C 918.115852 -13.920835 921.037727 -5.238542 923.053352 3.855208 C 925.068977 12.954167 926.074186 21.995834 926.074186 30.990627 Z M 860.647098 35.641669 C 860.647098 31.089585 860.027306 26.027085 858.787723 20.443751 C 857.548139 14.865626 855.636681 9.641667 853.048139 4.7875 C 850.464806 -0.0718755 847.157514 -4.155209 843.126263 -7.462501 C 839.095013 -10.769793 834.287721 -12.426043 828.709596 -12.426043 C 823.022095 -12.426043 818.167928 -10.769793 814.136678 -7.462501 C 810.105428 -4.155209 806.772094 -0.0718755 804.131469 4.7875 C 801.496052 9.641667 799.558552 14.865626 798.318969 20.443751 C 797.079385 26.027085 796.459594 31.089585 796.459594 35.641669 C 796.459594 40.188544 797.079385 45.251044 798.318969 50.834378 C 799.558552 56.417712 801.496052 61.636462 804.131469 66.495837 C 806.772094 71.350004 810.105428 75.433338 814.136678 78.74063 C 818.167928 82.047922 823.022095 83.704172 828.709596 83.704172 C 834.287721 83.704172 839.095013 82.047922 843.126263 78.74063 C 847.157514 75.433338 850.464806 71.350004 853.048139 66.495837 C 855.636681 61.636462 857.548139 56.417712 858.787723 50.834378 C 860.027306 45.251044 860.647098 40.188544 860.647098 35.641669 Z M 1111.261698 -80.025006 L 1036.527318 23.235418 L 1099.475239 133.006258 L 1027.537734 145.719801 L 980.402314 78.74063 L 977.923147 148.823968 L 913.423143 151.303134 L 918.386685 -86.222923 L 990.63669 -82.191673 L 985.053356 -12.113543 L 1033.115859 -86.222923 Z M 1111.261698 -80.025006 " stroke="#000000" stroke-width="43.660927" stroke-opacity="1" stroke-miterlimit="4"/><g fill="#ffffff" fill-opacity="1"><g transform="translate(122.428781, 264.788275)"><g><path d="M 141.28125 -41.390625 C 141.28125 -34.960938 140.097656 -29.421875 137.734375 -24.765625 C 135.367188 -20.117188 132.207031 -16.164062 128.25 -12.90625 C 124.300781 -9.644531 119.75 -6.988281 114.59375 -4.9375 C 109.4375 -2.882812 104.066406 -1.273438 98.484375 -0.109375 C 92.898438 1.046875 87.296875 1.816406 81.671875 2.203125 C 76.054688 2.597656 70.8125 2.796875 65.9375 2.796875 C 61.125 2.796875 56.140625 2.617188 50.984375 2.265625 C 45.828125 1.921875 40.691406 1.320312 35.578125 0.46875 C 30.460938 -0.382812 25.421875 -1.523438 20.453125 -2.953125 C 15.492188 -4.390625 10.804688 -6.195312 6.390625 -8.375 L 6.15625 -158.140625 C 10.5 -159.921875 15.113281 -161.523438 20 -162.953125 C 24.882812 -164.390625 29.863281 -165.59375 34.9375 -166.5625 C 40.019531 -167.539062 45.078125 -168.28125 50.109375 -168.78125 C 55.148438 -169.28125 60.035156 -169.53125 64.765625 -169.53125 C 70.273438 -169.53125 75.835938 -169.179688 81.453125 -168.484375 C 87.078125 -167.785156 92.484375 -166.625 97.671875 -165 C 102.867188 -163.375 107.710938 -161.257812 112.203125 -158.65625 C 116.703125 -156.0625 120.640625 -152.863281 124.015625 -149.0625 C 127.390625 -145.269531 130.023438 -140.851562 131.921875 -135.8125 C 133.816406 -130.769531 134.765625 -124.957031 134.765625 -118.375 C 134.765625 -114.03125 134.144531 -109.957031 132.90625 -106.15625 C 131.664062 -102.363281 129.882812 -98.953125 127.5625 -95.921875 C 125.238281 -92.898438 122.40625 -90.320312 119.0625 -88.1875 C 115.726562 -86.0625 111.972656 -84.492188 107.796875 -83.484375 C 112.828125 -82.171875 117.414062 -80.234375 121.5625 -77.671875 C 125.71875 -75.117188 129.25 -72.019531 132.15625 -68.375 C 135.0625 -64.726562 137.304688 -60.617188 138.890625 -56.046875 C 140.484375 -51.472656 141.28125 -46.585938 141.28125 -41.390625 Z M 82.203125 -107.671875 C 82.203125 -109.921875 81.738281 -111.835938 80.8125 -113.421875 C 79.882812 -115.015625 78.738281 -116.316406 77.375 -117.328125 C 76.019531 -118.335938 74.546875 -119.070312 72.953125 -119.53125 C 71.367188 -120 69.957031 -120.234375 68.71875 -120.234375 C 67.164062 -120.234375 65.65625 -120 64.1875 -119.53125 C 62.71875 -119.070312 61.285156 -118.53125 59.890625 -117.90625 L 59.1875 -92.09375 C 60.96875 -92.09375 63.175781 -92.25 65.8125 -92.5625 C 68.445312 -92.875 70.984375 -93.550781 73.421875 -94.59375 C 75.867188 -95.632812 77.941406 -97.179688 79.640625 -99.234375 C 81.347656 -101.296875 82.203125 -104.109375 82.203125 -107.671875 Z M 65.703125 -69.765625 C 63.453125 -69.765625 61.28125 -69.53125 59.1875 -69.0625 L 58.71875 -42.5625 C 59.882812 -42.320312 61.03125 -42.101562 62.15625 -41.90625 C 63.28125 -41.71875 64.382812 -41.625 65.46875 -41.625 C 67.09375 -41.625 68.875 -41.796875 70.8125 -42.140625 C 72.75 -42.492188 74.570312 -43.191406 76.28125 -44.234375 C 77.988281 -45.285156 79.398438 -46.703125 80.515625 -48.484375 C 81.640625 -50.265625 82.203125 -52.628906 82.203125 -55.578125 C 82.203125 -58.523438 81.640625 -60.925781 80.515625 -62.78125 C 79.398438 -64.644531 78.023438 -66.097656 76.390625 -67.140625 C 74.765625 -68.191406 72.984375 -68.890625 71.046875 -69.234375 C 69.109375 -69.585938 67.328125 -69.765625 65.703125 -69.765625 Z M 65.703125 -69.765625 "/></g></g></g><g fill="#ffffff" fill-opacity="1"><g transform="translate(246.083844, 264.788275)"><g><path d="M 128.84375 -166.28125 L 127.671875 -116.984375 L 93.03125 -115.578125 L 84.1875 -5.34375 L 35.109375 -2.796875 L 35.34375 -113.03125 L 0.703125 -111.15625 L 2.09375 -166.046875 Z M 128.84375 -166.28125 "/></g></g></g><g fill="#ffffff" fill-opacity="1"><g transform="translate(357.529184, 264.788275)"><g><path d="M 121.15625 -163.484375 L 114.65625 -114.421875 C 112.40625 -115.035156 110.15625 -115.457031 107.90625 -115.6875 C 105.65625 -115.925781 103.40625 -116.046875 101.15625 -116.046875 C 95.425781 -116.046875 89.960938 -115.289062 84.765625 -113.78125 C 79.578125 -112.269531 74.984375 -109.960938 70.984375 -106.859375 C 66.992188 -103.753906 63.816406 -99.875 61.453125 -95.21875 C 59.085938 -90.570312 57.90625 -85.113281 57.90625 -78.84375 C 57.90625 -74.8125 58.546875 -71.320312 59.828125 -68.375 C 61.109375 -65.425781 62.910156 -62.984375 65.234375 -61.046875 C 67.554688 -59.109375 70.304688 -57.671875 73.484375 -56.734375 C 76.660156 -55.804688 80.148438 -55.34375 83.953125 -55.34375 C 86.816406 -55.34375 89.800781 -55.648438 92.90625 -56.265625 C 96.007812 -56.890625 99.070312 -57.707031 102.09375 -58.71875 C 105.113281 -59.726562 108.054688 -60.890625 110.921875 -62.203125 C 113.796875 -63.523438 116.4375 -64.882812 118.84375 -66.28125 L 114.1875 -11.625 C 111.164062 -10.070312 107.890625 -8.695312 104.359375 -7.5 C 100.828125 -6.300781 97.203125 -5.253906 93.484375 -4.359375 C 89.765625 -3.460938 86.046875 -2.78125 82.328125 -2.3125 C 78.609375 -1.851562 75.039062 -1.625 71.625 -1.625 C 61.78125 -1.625 52.59375 -3.445312 44.0625 -7.09375 C 35.539062 -10.738281 28.140625 -15.738281 21.859375 -22.09375 C 15.578125 -28.445312 10.632812 -35.945312 7.03125 -44.59375 C 3.425781 -53.238281 1.625 -62.5625 1.625 -72.5625 C 1.625 -85.8125 3.519531 -98.304688 7.3125 -110.046875 C 11.113281 -121.796875 16.695312 -132.085938 24.0625 -140.921875 C 31.425781 -149.765625 40.554688 -156.742188 51.453125 -161.859375 C 62.347656 -166.972656 74.882812 -169.53125 89.0625 -169.53125 C 94.414062 -169.53125 99.898438 -169.101562 105.515625 -168.25 C 111.140625 -167.40625 116.351562 -165.816406 121.15625 -163.484375 Z M 121.15625 -163.484375 "/></g></g></g><g fill="#ffffff" fill-opacity="1"><g transform="translate(462.23012, 264.788275)"><g><path d="M 87.203125 -167.203125 L 80.46875 -1.859375 L 29.765625 -4.1875 L 32.5625 -114.1875 L 13.953125 -101.390625 L -3.484375 -141.15625 L 34.421875 -169.53125 Z M 87.203125 -167.203125 "/></g></g></g><g fill="#ffffff" fill-opacity="1"><g transform="translate(536.813779, 264.788275)"><g><path d="M 147.328125 -83.25 C 147.328125 -76.4375 146.570312 -69.65625 145.0625 -62.90625 C 143.550781 -56.164062 141.359375 -49.691406 138.484375 -43.484375 C 135.617188 -37.285156 132.113281 -31.507812 127.96875 -26.15625 C 123.820312 -20.8125 119.070312 -16.160156 113.71875 -12.203125 C 108.375 -8.253906 102.503906 -5.15625 96.109375 -2.90625 C 89.710938 -0.65625 82.832031 0.46875 75.46875 0.46875 C 68.019531 0.46875 61.078125 -0.65625 54.640625 -2.90625 C 48.210938 -5.15625 42.34375 -8.253906 37.03125 -12.203125 C 31.71875 -16.160156 26.96875 -20.8125 22.78125 -26.15625 C 18.601562 -31.507812 15.078125 -37.285156 12.203125 -43.484375 C 9.335938 -49.691406 7.148438 -56.1875 5.640625 -62.96875 C 4.128906 -69.75 3.375 -76.507812 3.375 -83.25 C 3.375 -90 4.128906 -96.785156 5.640625 -103.609375 C 7.148438 -110.429688 9.335938 -116.941406 12.203125 -123.140625 C 15.078125 -129.335938 18.601562 -135.128906 22.78125 -140.515625 C 26.96875 -145.910156 31.71875 -150.582031 37.03125 -154.53125 C 42.34375 -158.488281 48.234375 -161.585938 54.703125 -163.828125 C 61.179688 -166.078125 68.101562 -167.203125 75.46875 -167.203125 C 82.832031 -167.203125 89.710938 -166.078125 96.109375 -163.828125 C 102.503906 -161.585938 108.375 -158.488281 113.71875 -154.53125 C 119.070312 -150.582031 123.820312 -145.910156 127.96875 -140.515625 C 132.113281 -135.128906 135.617188 -129.335938 138.484375 -123.140625 C 141.359375 -116.941406 143.550781 -110.429688 145.0625 -103.609375 C 146.570312 -96.785156 147.328125 -90 147.328125 -83.25 Z M 98.25 -79.765625 C 98.25 -83.179688 97.785156 -86.976562 96.859375 -91.15625 C 95.929688 -95.34375 94.5 -99.257812 92.5625 -102.90625 C 90.625 -106.550781 88.140625 -109.613281 85.109375 -112.09375 C 82.085938 -114.570312 78.484375 -115.8125 74.296875 -115.8125 C 70.035156 -115.8125 66.394531 -114.570312 63.375 -112.09375 C 60.351562 -109.613281 57.851562 -106.550781 55.875 -102.90625 C 53.894531 -99.257812 52.4375 -95.34375 51.5 -91.15625 C 50.570312 -86.976562 50.109375 -83.179688 50.109375 -79.765625 C 50.109375 -76.359375 50.570312 -72.5625 51.5 -68.375 C 52.4375 -64.1875 53.894531 -60.269531 55.875 -56.625 C 57.851562 -52.976562 60.351562 -49.914062 63.375 -47.4375 C 66.394531 -44.957031 70.035156 -43.71875 74.296875 -43.71875 C 78.484375 -43.71875 82.085938 -44.957031 85.109375 -47.4375 C 88.140625 -49.914062 90.625 -52.976562 92.5625 -56.625 C 94.5 -60.269531 95.929688 -64.1875 96.859375 -68.375 C 97.785156 -72.5625 98.25 -76.359375 98.25 -79.765625 Z M 98.25 -79.765625 "/></g></g></g><g fill="#ffffff" fill-opacity="1"><g transform="translate(669.655188, 264.788275)"><g><path d="M 147.328125 -83.25 C 147.328125 -76.4375 146.570312 -69.65625 145.0625 -62.90625 C 143.550781 -56.164062 141.359375 -49.691406 138.484375 -43.484375 C 135.617188 -37.285156 132.113281 -31.507812 127.96875 -26.15625 C 123.820312 -20.8125 119.070312 -16.160156 113.71875 -12.203125 C 108.375 -8.253906 102.503906 -5.15625 96.109375 -2.90625 C 89.710938 -0.65625 82.832031 0.46875 75.46875 0.46875 C 68.019531 0.46875 61.078125 -0.65625 54.640625 -2.90625 C 48.210938 -5.15625 42.34375 -8.253906 37.03125 -12.203125 C 31.71875 -16.160156 26.96875 -20.8125 22.78125 -26.15625 C 18.601562 -31.507812 15.078125 -37.285156 12.203125 -43.484375 C 9.335938 -49.691406 7.148438 -56.1875 5.640625 -62.96875 C 4.128906 -69.75 3.375 -76.507812 3.375 -83.25 C 3.375 -90 4.128906 -96.785156 5.640625 -103.609375 C 7.148438 -110.429688 9.335938 -116.941406 12.203125 -123.140625 C 15.078125 -129.335938 18.601562 -135.128906 22.78125 -140.515625 C 26.96875 -145.910156 31.71875 -150.582031 37.03125 -154.53125 C 42.34375 -158.488281 48.234375 -161.585938 54.703125 -163.828125 C 61.179688 -166.078125 68.101562 -167.203125 75.46875 -167.203125 C 82.832031 -167.203125 89.710938 -166.078125 96.109375 -163.828125 C 102.503906 -161.585938 108.375 -158.488281 113.71875 -154.53125 C 119.070312 -150.582031 123.820312 -145.910156 127.96875 -140.515625 C 132.113281 -135.128906 135.617188 -129.335938 138.484375 -123.140625 C 141.359375 -116.941406 143.550781 -110.429688 145.0625 -103.609375 C 146.570312 -96.785156 147.328125 -90 147.328125 -83.25 Z M 98.25 -79.765625 C 98.25 -83.179688 97.785156 -86.976562 96.859375 -91.15625 C 95.929688 -95.34375 94.5 -99.257812 92.5625 -102.90625 C 90.625 -106.550781 88.140625 -109.613281 85.109375 -112.09375 C 82.085938 -114.570312 78.484375 -115.8125 74.296875 -115.8125 C 70.035156 -115.8125 66.394531 -114.570312 63.375 -112.09375 C 60.351562 -109.613281 57.851562 -106.550781 55.875 -102.90625 C 53.894531 -99.257812 52.4375 -95.34375 51.5 -91.15625 C 50.570312 -86.976562 50.109375 -83.179688 50.109375 -79.765625 C 50.109375 -76.359375 50.570312 -72.5625 51.5 -68.375 C 52.4375 -64.1875 53.894531 -60.269531 55.875 -56.625 C 57.851562 -52.976562 60.351562 -49.914062 63.375 -47.4375 C 66.394531 -44.957031 70.035156 -43.71875 74.296875 -43.71875 C 78.484375 -43.71875 82.085938 -44.957031 85.109375 -47.4375 C 88.140625 -49.914062 90.625 -52.976562 92.5625 -56.625 C 94.5 -60.269531 95.929688 -64.1875 96.859375 -68.375 C 97.785156 -72.5625 98.25 -76.359375 98.25 -79.765625 Z M 98.25 -79.765625 "/></g></g></g><g fill="#ffffff" fill-opacity="1"><g transform="translate(802.496596, 264.788275)"><g><path d="M 153.375 -166.515625 L 97.328125 -89.0625 L 144.53125 -6.75 L 90.578125 2.796875 L 55.234375 -47.4375 L 53.375 5.109375 L 5 6.984375 L 8.71875 -171.15625 L 62.90625 -168.140625 L 58.71875 -115.578125 L 94.765625 -171.15625 Z M 153.375 -166.515625 "/></g></g></g></svg>